<svg width="145" height="84" viewBox="0 0 145 84" fill="none" xmlns="http://www.w3.org/2000/svg">
<path d="M11.2311 53.6843C11.9873 53.4669 12.5291 52.7395 12.5275 51.8757C12.5449 50.8155 12.5235 49.7554 12.5214 48.6756C12.5204 48.1455 12.5785 48.0865 13.0829 48.0855C14.6349 48.0826 16.1675 48.0797 17.7195 48.0768C18.2627 48.0758 18.3015 48.115 18.3025 48.645C18.3032 48.9984 18.3039 49.3518 18.3045 49.7052C18.3055 50.2156 18.2668 50.255 17.7624 50.2559C16.87 50.2576 15.9776 50.2593 15.0852 50.261C14.1928 50.2823 13.4373 50.8334 13.2254 51.6191C13.129 51.9334 13.1682 52.1689 13.479 52.3843C14.8971 53.3633 16.2957 54.3619 17.7332 55.3408C17.9857 55.517 18.2964 55.6735 18.5874 55.6926C19.4605 55.7302 20.3334 55.7089 21.3228 55.707C21.0314 55.4916 20.8566 55.3545 20.6623 55.2175C19.3802 54.3168 18.0788 53.4358 16.7967 52.5351C16.6995 52.4568 16.6411 52.3195 16.5827 52.2214C16.699 52.1819 16.7959 52.1228 16.9123 52.1226C17.3391 52.1022 17.7465 52.121 18.1733 52.1202C19.2984 52.0985 20.0729 51.3117 20.1096 50.173C20.1277 49.5054 20.1264 48.8183 20.1058 48.1508C20.0843 47.0711 19.365 46.2479 18.3174 46.2302C16.3967 46.1946 14.4567 46.1982 12.5362 46.2411C11.5469 46.2626 10.7724 47.0494 10.7548 48.0114C10.7193 49.7784 10.7421 51.5649 10.7454 53.3318C10.7462 53.7441 10.8433 53.8028 11.2311 53.6843ZM41.2243 13.0866C43.1714 16.8524 45.1379 20.6181 47.1044 24.3839C49.5577 29.1107 52.0303 33.8374 54.4642 38.5643C54.62 38.8781 54.853 38.9562 55.1828 38.9556C66.4152 38.9344 77.6283 38.9132 88.8608 38.8921C89.2488 38.8913 89.4619 38.7535 89.6359 38.3998C90.9116 35.9041 92.1873 33.428 93.463 30.9519C96.1111 25.8032 98.7591 20.6544 101.388 15.5058C102.857 12.617 104.306 9.72832 105.775 6.83958C105.872 6.6627 105.949 6.46623 106.026 6.28939C106.007 6.2698 105.968 6.25024 105.949 6.21101C105.542 6.44737 105.115 6.68376 104.708 6.93975C99.8834 9.89372 95.039 12.8477 90.214 15.7821C90.0784 15.8609 89.9232 15.9004 89.7875 15.9596C89.7485 15.8026 89.6705 15.626 89.6702 15.469C89.6653 12.8382 89.6797 10.2075 89.6748 7.59634C89.6744 7.40002 89.674 7.20369 89.6543 7.00741C89.6346 6.88965 89.5956 6.77193 89.5566 6.67384C89.4598 6.73292 89.3434 6.7724 89.2465 6.83148C87.8714 8.05129 86.4963 9.25146 85.1212 10.4713C83.4169 11.9862 81.7125 13.4815 80.0082 14.9964C79.3497 15.567 79.3303 15.567 78.9602 14.7824C76.915 10.4278 74.8892 6.05363 72.8634 1.69903C72.6296 1.18903 72.3765 0.679061 72.1233 0.169093C72.0259 -0.0466803 71.9289 -0.0661298 71.8129 0.169679C71.7743 0.267914 71.7163 0.366186 71.6777 0.464421C70.615 2.76343 69.5524 5.06243 68.4897 7.36144C67.2724 9.97485 66.0746 12.5882 64.8573 15.2213C64.6641 15.6339 64.6447 15.634 64.295 15.3401C62.8181 14.0472 61.3219 12.7346 59.8451 11.4417C58.6597 10.4034 57.4743 9.34546 56.2696 8.30721C55.7449 7.83702 55.2202 7.36683 54.6762 6.91631C54.5984 6.83792 54.4626 6.81855 54.3655 6.75983C54.3463 6.87766 54.3077 6.99553 54.2885 7.11336C54.2693 7.19193 54.2888 7.25079 54.2889 7.32932C54.2923 9.09624 54.2956 10.8828 54.299 12.6497C54.3009 13.6706 54.3029 14.7111 54.2854 15.732C54.2862 16.1639 54.2281 16.2033 53.8397 15.9881C53.762 15.949 53.6843 15.8902 53.6066 15.8511C52.4801 15.1661 51.3537 14.4811 50.2272 13.7961C46.6147 11.6237 43.0022 9.45128 39.3898 7.27889C38.8654 6.96576 38.341 6.67226 37.8166 6.35912C37.8171 6.59471 37.8756 6.75166 37.9534 6.88895C39.0825 8.92859 40.1534 11.0076 41.2243 13.0866ZM89.6764 18.7476C89.6757 18.3549 89.8111 18.1387 90.1211 17.9418C93.7641 15.7557 97.3877 13.5501 101.031 11.3444C101.186 11.2459 101.38 11.1866 101.535 11.1275C101.477 11.3239 101.458 11.5203 101.381 11.6971C99.6024 15.195 97.8242 18.693 96.0266 22.1713C94.8669 24.4509 93.6878 26.7305 92.5087 29.01C91.7162 30.5429 90.9432 32.0953 90.1507 33.6478C90.1121 33.746 90.0541 33.8443 89.996 33.9229C89.9379 33.9819 89.8604 34.0213 89.7828 34.0215C89.7634 34.0215 89.705 33.9038 89.7049 33.8449C89.6853 33.7468 89.6851 33.629 89.6849 33.5308C89.6802 31.0572 89.6755 28.5638 89.6709 26.0902L89.6902 26.0901C89.705 23.636 89.7004 21.182 89.6764 18.7476ZM58.0454 34.3954C58.0257 34.258 58.0061 34.1599 58.0254 34.101C58.2379 33.6098 58.4503 33.1186 58.6823 32.6469C60.0348 29.7584 61.3874 26.8895 62.7399 24.001C62.9718 23.4901 62.9912 23.4901 63.4961 23.7836C64.6614 24.4686 65.8267 25.1731 66.9726 25.8581C67.3999 26.1125 67.4 26.1714 67.032 26.5059C64.4174 28.8274 61.8028 31.1294 59.2075 33.4313C58.917 33.687 58.6265 33.9428 58.336 34.1986C58.2391 34.2576 58.1616 34.2971 58.0454 34.3954ZM68.6051 27.4256C68.8763 27.1895 69.0701 27.1106 69.4197 27.3259C70.3326 27.8935 70.352 27.8739 69.4412 28.4253C67.8329 29.41 66.2052 30.3947 64.5968 31.3793C64.403 31.4975 64.2092 31.596 64.0154 31.6945C63.9959 31.6553 63.9571 31.6161 63.9376 31.5769C64.2862 31.2425 64.6347 30.8884 65.0027 30.5736C66.2035 29.5308 67.4237 28.488 68.6051 27.4256ZM84.8029 37.1524C80.5156 37.1605 76.2476 37.1686 71.9603 37.1766C67.6729 37.1847 63.405 37.1928 59.1176 37.2009C59.0788 37.2009 59.0401 37.2206 59.0206 37.201C58.9042 37.162 58.7877 37.123 58.6906 37.0839C58.768 36.9856 58.826 36.8677 58.9035 36.8086C59.2135 36.6117 59.5236 36.4148 59.8336 36.2179C63.7673 33.8546 67.6816 31.4913 71.6153 29.1083C71.9253 28.9114 72.1582 28.9503 72.4301 29.1068C75.0326 30.6725 77.6351 32.2382 80.2377 33.8039C81.8108 34.7433 83.3646 35.6631 84.9377 36.6025C85.0931 36.7003 85.2292 36.8375 85.3652 36.955C85.1908 37.0535 84.9969 37.1521 84.8029 37.1524ZM70.6387 25.6156C70.9873 25.3008 71.3553 24.986 71.7039 24.6712C71.8976 24.4942 72.0721 24.4546 72.2859 24.6701C72.6357 25.0032 73.0049 25.297 73.3546 25.5908C73.4129 25.6496 73.4713 25.7281 73.5296 25.8065C73.491 25.8851 73.4523 25.944 73.4136 25.9834C73.3361 26.0424 73.2392 26.1015 73.1423 26.1606C71.9022 26.9286 71.844 26.9287 70.6784 26.0671C70.5035 25.93 70.4257 25.8123 70.6387 25.6156ZM79.7283 31.1545C79.8643 31.272 80.0004 31.4288 80.1171 31.566C80.0783 31.6053 80.059 31.6446 80.0203 31.684C79.3599 31.2926 78.6996 30.9012 78.0393 30.5098C76.7768 29.7465 75.5144 28.9832 74.252 28.2199C73.7664 27.9263 73.7663 27.8478 74.2507 27.5524C74.3476 27.4933 74.4639 27.4342 74.5608 27.3555C74.8901 27.0997 75.1423 27.1384 75.4727 27.4323C76.8913 28.7057 78.3098 29.9203 79.7283 31.1545ZM76.9257 26.4087L81.2666 23.8875L83.8242 32.4817C82.6194 31.4239 81.4339 30.3463 80.2292 29.2884C79.1409 28.3088 78.0334 27.3686 76.9257 26.4087ZM87.9453 26.6235L87.9647 26.6234C87.9688 28.8026 87.9729 30.9818 87.977 33.1807C87.9774 33.3574 87.9001 33.5342 87.8616 33.711C87.7644 33.5737 87.6671 33.4365 87.5892 33.2796C86.1673 30.2588 84.7454 27.2185 83.3429 24.1977C83.1481 23.7662 82.9533 23.315 82.7391 22.9031C82.6028 22.6482 82.6413 22.491 82.8932 22.3335C84.4047 21.4276 85.8968 20.5216 87.4083 19.6157C87.8733 19.34 87.9316 19.3791 87.9326 19.9288C87.9368 22.1473 87.941 24.3854 87.9453 26.6235ZM80.4775 16.9784C82.7242 15.0109 84.9708 13.0238 87.2175 11.0367C87.3918 10.8793 87.5856 10.7807 87.7793 10.643C87.8185 10.8588 87.8771 11.0747 87.8776 11.2906C87.8986 12.1741 87.8809 13.0576 87.8826 13.9606C87.8843 14.8637 87.8666 15.7669 87.8877 16.6699C87.8884 17.0233 87.7918 17.2591 87.4818 17.456C85.7184 18.5195 83.955 19.5829 82.2111 20.666C81.9011 20.8629 81.7457 20.8043 81.6094 20.4905C81.1808 19.5489 80.7328 18.5878 80.2848 17.6463C80.1678 17.352 80.2451 17.1751 80.4775 16.9784ZM78.9096 18.8268C79.3187 19.7095 79.7472 20.5921 80.1562 21.4748C80.1952 21.5533 80.2147 21.6514 80.2538 21.7888C80.1182 21.8872 80.0021 22.0248 79.8276 22.1037C78.6068 22.852 77.3667 23.6004 76.1265 24.3488C75.2351 24.8805 75.2351 24.8805 74.4579 24.2341C74.2053 24.0383 73.9915 23.8031 73.7583 23.5876C73.3696 23.2546 73.3695 23.1957 73.7375 22.8612C74.5897 22.1136 75.4224 21.366 76.2747 20.638C76.9913 20.0084 77.7079 19.3984 78.4051 18.7492C78.6376 18.5721 78.7733 18.5522 78.9096 18.8268ZM66.527 15.866C67.8989 12.9578 69.2319 10.0301 70.6038 7.10223C70.9902 6.27694 71.3766 5.43201 71.7825 4.60668C71.8405 4.50841 71.9179 4.4101 71.9953 4.31179C72.0731 4.40981 72.1508 4.48819 72.2092 4.58624C73.0272 6.27309 73.8258 7.97961 74.6244 9.6665C75.4814 11.4907 76.3385 13.3149 77.1955 15.1391C77.4098 15.6099 77.624 16.061 77.8383 16.5318C77.8772 16.5906 77.8968 16.6691 77.9358 16.7672C77.8583 16.8655 77.781 16.9835 77.6841 17.0622C75.8829 18.6558 74.1011 20.2298 72.2999 21.8234C72.1063 22.0005 71.9705 22.0203 71.7568 21.8441C70.1439 20.4139 68.531 19.0034 66.9182 17.5929C66.8793 17.5537 66.8405 17.5145 66.8016 17.4754C66.0631 16.8092 66.0825 16.8092 66.527 15.866ZM63.8991 21.4662C64.3049 20.6016 64.7107 19.737 65.097 18.8725C65.2323 18.5974 65.3487 18.5775 65.5624 18.7734C66.6701 19.753 67.7777 20.7325 68.8853 21.6924C69.3322 22.0842 69.7986 22.476 70.2455 22.8678C70.3815 22.9853 70.4788 23.1029 70.6148 23.2401C70.518 23.3385 70.4794 23.4171 70.4213 23.4761C69.9565 23.8892 69.511 24.3023 69.0462 24.7155C68.8719 24.8729 68.7168 24.8928 68.5225 24.7754C67.0464 23.8751 65.551 22.9748 64.0555 22.0942C63.7836 21.918 63.7638 21.7413 63.8991 21.4662ZM56.0902 16.0624C56.1665 15.3751 56.107 14.6881 56.1057 13.9813L56.1251 13.9813C56.1234 13.0782 56.1217 12.1751 56.12 11.272C56.1196 11.0953 56.1775 10.9185 56.2159 10.7221C56.3713 10.82 56.5655 10.8981 56.7015 11.0157C57.5176 11.7209 58.3143 12.4262 59.1304 13.1314C60.6073 14.4244 62.0841 15.737 63.5804 17.0299C63.833 17.2454 63.8721 17.4023 63.7174 17.6971C63.2729 18.6011 62.8479 19.5246 62.4228 20.4285C62.1909 20.9001 62.1909 20.9197 61.7442 20.6457C60.171 19.7063 58.6366 18.708 57.0442 17.8471C56.248 17.4364 56.0142 16.9067 56.0902 16.0624ZM56.0519 26.6247L56.1101 26.6246L56.0979 20.1263C56.0977 20.0674 56.0977 20.0281 56.0976 19.9692C56.1167 19.8121 56.1552 19.6746 56.1937 19.5175C56.349 19.5761 56.5237 19.5954 56.6596 19.6933C57.3199 20.0651 57.9609 20.4762 58.6018 20.8676C59.4176 21.3569 60.2139 21.8658 61.0296 22.3355C61.3792 22.5311 61.3989 22.7274 61.2444 23.0615C60.4907 24.6335 59.7759 26.2054 59.0417 27.7774C58.2109 29.5852 57.3801 31.4126 56.5494 33.2203L56.53 33.2596C56.4333 33.4169 56.3172 33.5741 56.2205 33.7314C56.1813 33.5351 56.084 33.339 56.0836 33.1427C56.0601 30.9635 56.056 28.7843 56.0519 26.6247ZM42.6176 11.2582C43.0061 11.4931 43.3945 11.7279 43.783 11.9628C47.1624 13.9982 50.5418 16.0336 53.9406 18.0493C54.2902 18.2646 54.3682 18.4804 54.3689 18.8534C54.3541 21.3075 54.3781 23.7419 54.3827 26.196L54.3633 26.196L54.3771 33.4796C54.3772 33.5385 54.3773 33.5974 54.3774 33.6367C54.3388 33.7938 54.3003 33.9313 54.2618 34.0885C54.1452 33.9709 54.0092 33.873 53.9313 33.7357C52.6073 31.186 51.2833 28.6166 49.9593 26.0669C48.3627 22.9876 46.7855 19.9083 45.1889 16.829C44.3127 15.1226 43.4171 13.4163 42.5215 11.7099C42.4825 11.6315 42.4436 11.553 42.4046 11.4746C42.3851 11.4157 42.385 11.3372 42.3849 11.2783C42.4624 11.2585 42.5594 11.2387 42.6176 11.2582ZM22.0172 53.5854C22.0199 54.999 22.7585 55.7436 24.1553 55.7606C25.8625 55.7574 27.5503 55.7542 29.2574 55.751C30.6542 55.7483 31.4093 54.9616 31.426 53.5284C31.424 52.429 31.4219 51.3296 31.4198 50.2302C31.4176 49.0326 31.4153 47.8546 31.4131 46.6571C31.4124 46.3233 31.3346 46.1664 30.966 46.1867C30.5781 46.2267 30.19 46.1686 29.802 46.2086C28.9485 46.2494 28.1931 46.8595 28.0199 47.6255C27.9623 47.9201 28.0208 48.077 28.3505 48.0568C28.6221 48.0562 28.8744 48.0754 29.1459 48.0553C29.4563 48.035 29.573 48.1919 29.5736 48.506C29.5767 50.1551 29.5798 51.8042 29.5829 53.4534C29.5835 53.7479 29.4673 53.8659 29.1763 53.8664C27.5273 53.8695 25.8783 53.8726 24.2293 53.8757C23.8996 53.8764 23.7829 53.7195 23.8017 53.425C23.8204 53.0519 23.8391 52.6789 23.8384 52.3059C23.8361 51.069 23.8337 49.8126 23.8314 48.5757C23.8305 48.1045 23.8886 48.0652 24.3542 48.0643C24.8974 48.0633 25.4406 48.0819 25.9838 48.0612C26.8567 48.0203 27.5154 47.5282 27.7855 46.7424C27.9398 46.2906 27.9008 46.1925 27.4158 46.1934C26.2907 46.1956 25.1655 46.2173 24.0403 46.1998C22.8568 46.1628 21.9275 47.1658 21.9685 48.324C22.0494 50.0711 22.0139 51.8185 22.0172 53.5854ZM125.791 55.5493C127.537 55.546 129.302 55.5427 131.048 55.5394C132.367 55.5369 133.122 54.7502 133.139 53.3955C133.137 52.2765 133.135 51.1574 133.133 50.0384C133.131 48.8408 133.109 47.6236 133.126 46.426C133.125 46.0726 133.009 45.955 132.66 45.9753C132.272 45.9957 131.884 45.9768 131.496 45.9972C130.662 46.038 129.945 46.648 129.733 47.4337C129.656 47.7283 129.714 47.8656 130.044 47.865C130.316 47.8448 130.568 47.864 130.84 47.8635C131.15 47.8433 131.267 48.0001 131.267 48.3142C131.27 49.9437 131.273 51.5732 131.276 53.2027C131.277 53.5365 131.18 53.6741 130.831 53.6747C129.221 53.6581 127.611 53.6808 126.001 53.6838C125.651 53.6845 125.535 53.5276 125.554 53.2135C125.55 51.6036 125.567 49.9937 125.544 48.3643C125.544 47.9913 125.679 47.8536 126.048 47.8725C126.61 47.8911 127.173 47.89 127.736 47.8693C128.57 47.8285 129.287 47.2971 129.518 46.5899C129.672 46.138 129.594 46.0007 129.129 46.0016C127.984 46.0038 126.859 45.9863 125.715 46.0081C124.531 46.0299 123.737 46.8363 123.74 48.0339C123.724 49.8401 123.727 51.6463 123.75 53.4525C123.733 54.7679 124.51 55.5517 125.791 55.5493ZM57.5568 73.6613C57.7712 74.1714 58.1792 74.5044 58.7418 74.5033C60.061 74.5204 61.3802 74.518 62.6799 74.4959C63.3589 74.475 63.9012 73.9831 63.9193 73.3352C63.9555 71.9216 63.9528 70.5081 63.9113 69.075C63.891 68.5842 63.5605 68.2315 63.114 68.036C62.7257 67.8796 62.6481 67.9191 62.6489 68.3313C62.6503 69.0577 62.6517 69.7841 62.653 70.5105C62.6543 71.178 62.6556 71.8652 62.6568 72.5327C62.658 73.1413 62.658 73.1413 62.0566 73.1424C60.6792 73.145 59.2824 73.1476 57.905 73.1502C57.4977 73.1903 57.4009 73.3083 57.5568 73.6613ZM60.0705 69.2786C60.4391 69.2779 60.8077 69.2772 61.1762 69.2372C61.6999 69.1577 62.0484 68.8233 62.2221 68.3125C62.2993 68.0964 62.2602 67.9394 61.9692 67.94C61.329 67.9608 60.6694 67.9228 60.0292 67.9633C59.4667 68.0036 59.0793 68.3184 58.8863 68.8489C58.7898 69.1043 58.829 69.3005 59.1782 69.2999C59.4691 69.2797 59.7795 69.2791 60.0705 69.2786ZM54.9163 51.9528C55.3237 51.952 55.3623 51.8734 55.1871 51.54C54.9924 51.187 54.7784 50.834 54.6031 50.4809C54.4473 50.1671 54.195 50.1087 53.9042 50.1878C53.2255 50.3854 52.7996 50.8377 52.5875 51.5056C52.4911 51.8199 52.6077 51.9768 52.9375 51.9565C53.2867 51.9362 53.6359 51.9552 53.9851 51.9545C54.2955 51.954 54.6059 51.973 54.9163 51.9528ZM1.82297 54.1143C1.86103 53.7216 1.86029 53.329 1.85955 52.9363C1.85685 51.5031 1.85414 50.07 1.8514 48.6172C1.85085 48.3227 1.8892 48.087 2.2578 48.0863C3.90678 48.0832 5.55576 48.0801 7.20474 48.077C7.51514 48.0764 7.59304 48.2333 7.59355 48.5082C7.59429 48.9008 7.59503 49.2935 7.59577 49.6861C7.59681 50.2358 7.57745 50.2555 7.03425 50.2565C6.16126 50.2582 5.28827 50.2598 4.39588 50.2615C3.50353 50.2828 2.80607 50.7749 2.53595 51.5608C2.36228 52.0519 2.42062 52.1303 2.90562 52.1294C4.4382 52.1265 5.95142 52.1433 7.48397 52.1208C8.60912 52.099 9.38363 51.3122 9.42028 50.1735C9.43846 49.5256 9.4372 48.8581 9.41658 48.2103C9.41436 47.0323 8.61745 46.2289 7.43406 46.2311C5.64924 46.2148 3.86446 46.2182 2.06032 46.2412C0.779935 46.2437 0.0054994 47.0697 0.00794289 48.3654C0.0100902 49.5041 0.0122375 50.6428 0.0143848 51.7815C0.0166432 52.979 0.0188646 54.157 0.0211229 55.3546C0.0220115 55.8257 0.0996847 55.8649 0.506821 55.7267C1.26289 55.4504 1.72749 54.9194 1.82297 54.1143ZM56.936 53.068C57.3056 53.5974 57.8683 53.6552 58.4501 53.556C58.9155 53.4766 58.9541 53.3783 58.7206 52.9665C58.195 52.0055 57.6694 51.0445 57.1243 50.0835C56.5599 49.0833 56.0147 48.0635 55.4309 47.083C55.0611 46.4554 54.5173 46.1227 53.7219 46.1242C53.6249 46.144 53.4697 46.1443 53.3146 46.1839C52.636 46.3618 52.2489 46.873 51.9203 47.4822C51.1277 48.9758 50.3157 50.4694 49.5231 51.963C48.9625 52.9849 48.4212 54.0264 47.8606 55.0484C47.6865 55.3432 47.745 55.4805 48.075 55.5781C48.6379 55.7341 49.1615 55.6545 49.5293 55.2416C50.0133 54.6909 50.4584 54.1011 50.8257 53.4526C51.7538 51.7821 52.6236 50.092 53.5322 48.4019C53.7641 47.9499 53.8612 47.9694 54.1142 48.4008C54.5813 49.2245 55.0098 50.0875 55.5157 50.9111C55.9633 51.6367 56.4496 52.3622 56.936 53.068ZM86.7435 68.3252C86.7427 67.8736 86.665 67.8345 86.2579 67.9923C85.7539 68.2092 85.4637 68.6024 85.4453 69.1325C85.429 70.8013 85.4321 72.4701 85.4353 74.1388C85.4358 74.4333 85.5717 74.4527 85.8044 74.3934C86.3473 74.2353 86.7343 73.7045 86.7524 73.0566C86.7704 72.2712 86.7495 71.486 86.748 70.7203C86.7466 69.935 86.745 69.1301 86.7435 68.3252ZM141.963 61.9975C142.176 61.9971 142.448 62.0359 142.447 61.6825C142.447 61.3291 142.175 61.3493 141.962 61.3497C141.574 61.3308 141.186 61.3511 140.798 61.3519C128.033 61.3759 115.268 61.4 102.483 61.4241C78.0201 61.4702 53.5376 61.536 29.0745 61.6018C24.4185 61.6106 19.7819 61.5997 15.126 61.5888C11.1684 61.5963 7.19145 61.6038 3.2339 61.6113C2.8071 61.6121 2.39971 61.6128 1.97291 61.6136C1.75951 61.6141 1.60439 61.6536 1.60491 61.9285C1.60539 62.1837 1.74134 62.262 1.97413 62.2615C2.22633 62.261 2.45913 62.2606 2.71132 62.2601C25.8359 62.2165 48.9604 62.1729 72.0849 62.1293C94.3365 62.0873 116.569 62.0454 138.82 62.0035C139.868 62.0211 140.915 62.0191 141.963 61.9975ZM108.84 47.905C109.927 47.9029 111.013 47.9009 112.099 47.8988C112.74 47.8976 112.759 47.9172 112.76 48.5454C112.762 49.6056 112.764 50.6658 112.766 51.7455C112.768 52.8842 112.771 54.0229 112.773 55.1419C112.773 55.5739 112.832 55.613 113.239 55.4945C114.014 55.2574 114.576 54.5692 114.594 53.725C114.609 51.801 114.625 49.8573 114.583 47.9334C114.561 46.8733 113.764 46.0895 112.736 46.0522C111.902 46.0341 111.048 46.0357 110.214 46.0569C109.399 46.0781 108.721 46.5898 108.471 47.356C108.277 47.8275 108.316 47.906 108.84 47.905ZM115.164 47.5397C115.164 47.7752 115.281 47.8928 115.514 47.8924C116.096 47.8913 116.678 47.9098 117.24 47.8695C118.094 47.809 118.772 47.1991 118.945 46.4331C119.022 46.1385 118.963 46.0012 118.634 46.0018C118.129 46.0224 117.625 46.0037 117.12 46.0046C116.907 46.005 116.694 46.0054 116.5 46.0058C115.064 46.0085 115.064 46.0085 115.164 47.4808L115.164 47.5397ZM105.63 53.4278C105.631 54.0364 105.652 54.6253 105.653 55.2339C105.654 55.5676 105.79 55.6263 106.08 55.5276C106.914 55.2708 107.456 54.5826 107.474 53.6795C107.491 52.5015 107.469 51.3432 107.467 50.1653C107.466 49.6548 107.465 49.1444 107.464 48.6143C107.463 47.8879 107.461 47.1615 107.479 46.4351C107.479 46.121 107.382 46.0034 107.071 46.1217C106.916 46.1809 106.742 46.2402 106.587 46.319C105.889 46.7522 105.619 47.4006 105.64 48.2055C105.624 49.9528 105.627 51.6805 105.63 53.4278ZM101.883 51.9624C102.931 51.9015 103.686 51.1344 103.703 50.0742C103.721 49.3674 103.72 48.6607 103.699 47.9539C103.678 46.9331 102.939 46.0903 101.93 46.0725C100.01 46.0369 98.0698 46.0406 96.1493 46.0834C95.1212 46.105 94.3661 46.931 94.3486 47.9519C94.3325 49.6992 94.3358 51.4269 94.3585 53.1742C94.3593 53.6061 94.4176 53.6452 94.8248 53.5463C95.6004 53.3289 96.1229 52.6604 96.1406 51.7573C96.158 50.6774 96.1365 49.5977 96.1539 48.5179C96.1533 48.2037 96.1722 47.9485 96.599 47.9477C98.248 47.9446 99.897 47.9415 101.546 47.9384C101.837 47.9378 101.954 48.075 101.954 48.3695C101.955 48.7229 101.956 49.0763 101.956 49.4297C101.957 50.1168 101.957 50.1168 101.298 50.118C100.444 50.1196 99.5713 50.1017 98.7177 50.1229C97.8447 50.1442 97.1473 50.6559 96.8772 51.4614C96.7615 51.815 96.8201 52.0505 97.1309 52.2658C98.5295 53.2252 99.8894 54.2239 101.288 55.1636C101.599 55.379 101.987 55.5549 102.356 55.5739C103.171 55.6312 104.005 55.5904 104.82 55.5889C104.839 55.5496 104.858 55.5299 104.858 55.4906C104.625 55.3144 104.373 55.1382 104.139 54.9815C102.916 54.12 101.672 53.2782 100.449 52.4166C100.332 52.3383 100.274 52.2206 100.176 52.1227C100.312 52.0831 100.448 51.9847 100.584 51.9845C101.01 51.964 101.437 51.9829 101.883 51.9624ZM67.3288 50.1625C66.4364 50.1641 65.544 50.1658 64.6516 50.1675C63.7981 50.1887 63.0812 50.6809 62.8305 51.4471C62.6761 51.8989 62.754 52.0362 63.2196 52.0353C64.7328 52.0324 66.2266 52.0493 67.7397 52.0268C68.8843 52.0246 69.6589 51.2575 69.6761 50.0991C69.6943 49.4512 69.6931 48.823 69.6724 48.1752C69.6506 46.8794 68.912 46.1152 67.6316 46.1176C65.8468 46.1013 64.062 46.1047 62.2578 46.1277C61.0357 46.13 60.2806 46.9364 60.283 48.1929C60.2851 49.3119 60.2872 50.431 60.2893 51.55C60.2915 52.7476 60.2938 53.9255 60.296 55.1231C60.2971 55.7121 60.3942 55.7708 60.937 55.5342C61.693 55.199 62.0604 54.5897 62.0783 53.7847C62.0954 52.5479 62.0736 51.2914 62.0713 50.0546C62.0703 49.5245 62.0693 48.9944 62.0683 48.4643C62.0677 48.1895 62.1644 48.0323 62.4554 48.0317C64.1238 48.0286 65.7922 48.0254 67.4606 48.0223C67.7516 48.0217 67.8682 48.1589 67.8688 48.4534C67.8695 48.8461 67.8703 49.2387 67.871 49.6314C67.8914 50.1418 67.872 50.1614 67.3288 50.1625ZM70.9661 55.2208C70.9669 55.6527 71.0058 55.6919 71.4324 55.5537C72.1885 55.3363 72.7111 54.6874 72.7484 53.8824C72.7673 53.6075 72.7474 53.3523 72.7469 53.0775C72.744 51.5658 72.7412 50.0541 72.7384 48.562C72.7378 48.2675 72.7178 47.9731 73.1446 47.9723C74.813 47.9691 76.4814 47.966 78.1304 47.9629C78.4214 47.9623 78.5381 48.1192 78.5192 48.3941C78.5199 48.7671 78.5206 49.1401 78.5213 49.5131C78.5225 50.1413 78.5031 50.1414 77.9017 50.1425C77.0287 50.1442 76.1557 50.1262 75.2633 50.1475C74.3516 50.1688 73.5767 50.7789 73.3843 51.5842C73.3072 51.8788 73.3851 52.0161 73.6955 52.0155C75.2862 52.0125 76.877 52.0095 78.4872 52.0065C79.3408 52.0049 80.3481 51.2177 80.2878 50.0988C80.2671 49.4313 80.2852 48.7441 80.284 48.0766C80.2623 46.8594 79.5043 46.0952 78.2821 46.0975C76.4973 46.1009 74.7125 46.0846 72.9277 46.1076C71.7055 46.1099 70.9117 46.9163 70.914 48.1335C70.9161 49.2722 70.9183 50.4109 70.9204 51.53C70.9615 52.7667 70.9638 54.0036 70.9661 55.2208ZM88.9241 51.8887C89.3315 51.8683 89.3702 51.8289 89.1949 51.4759C89.0197 51.1228 88.7863 50.8091 88.6304 50.456C88.4551 50.0833 88.1834 50.0446 87.8538 50.1434C87.214 50.3605 86.7881 50.8129 86.5759 51.4612C86.4601 51.7755 86.5962 51.9323 86.926 51.9121C87.2557 51.8918 87.5856 51.9108 87.9154 51.9102C88.2646 51.9095 88.5943 51.9089 88.9241 51.8887ZM91.041 53.1019C91.2938 53.4155 91.6626 53.5523 92.07 53.5319C92.1476 53.5317 92.2058 53.5316 92.2833 53.5118C92.904 53.4518 92.962 53.3535 92.67 52.824C92.1639 51.8825 91.6577 50.9608 91.1322 50.039C90.5482 48.98 89.9836 47.9209 89.3415 46.9012C88.641 45.7835 87.1472 45.7667 86.3537 46.8087C86.1215 47.1036 85.9475 47.4181 85.7735 47.7521C85.0582 49.0492 84.3623 50.3659 83.6664 51.6826C83.0864 52.7831 82.4871 53.864 81.9072 54.9646C81.6945 55.3576 81.7529 55.436 82.1798 55.5334C82.7621 55.6697 83.305 55.5313 83.6728 55.079C84.1373 54.5284 84.5436 53.9387 84.8916 53.3098C85.8003 51.6786 86.6508 50.0082 87.5401 48.3574C87.6174 48.2198 87.7336 48.1411 87.8498 48.0231C87.947 48.1407 88.0637 48.2583 88.1415 48.3759C88.7644 49.4938 89.3679 50.6117 90.0102 51.7099C90.3021 52.2002 90.6715 52.651 91.041 53.1019ZM36.3337 53.2443C36.3345 53.6959 36.4122 53.7546 36.8388 53.6164C36.9357 53.5769 37.0326 53.5375 37.1295 53.498C37.8078 53.1041 38.1364 52.4949 38.1349 51.6899C38.133 50.6691 38.131 49.6285 38.1291 48.6077C38.1285 48.2935 38.1668 48.0382 38.5742 48.0375C40.2232 48.0344 41.8722 48.0313 43.5212 48.0281C43.8122 48.0276 43.9095 48.1845 43.91 48.4593C43.9107 48.852 43.9115 49.2446 43.9122 49.6373C43.9132 50.187 43.8745 50.2067 43.3507 50.2077C42.4583 50.2094 41.5659 50.211 40.6735 50.2127C39.8006 50.234 39.0838 50.7654 38.8331 51.5512C38.7367 51.8851 38.776 52.1403 39.1062 52.3753C40.5242 53.3346 41.9035 54.3332 43.3215 55.2925C43.5934 55.4884 43.9623 55.6447 44.2922 55.6637C45.1071 55.7211 45.9412 55.6803 46.756 55.6787C46.7753 55.6394 46.7946 55.6001 46.814 55.5608C46.4837 55.3258 46.134 55.0713 45.8038 54.8363C44.6966 54.0727 43.5699 53.2896 42.4627 52.526C42.3655 52.4476 42.2877 52.3104 42.2099 52.2123C42.3262 52.1729 42.4618 52.0941 42.5782 52.0742C43.005 52.0538 43.4124 52.0726 43.8392 52.0522C44.9643 52.0108 45.7195 51.2634 45.7367 50.1246C45.7548 49.4178 45.7534 48.7111 45.7327 48.0043C45.692 47.0032 44.9533 46.18 43.9833 46.1622C42.0432 46.1266 40.0838 46.1303 38.1439 46.1732C37.1352 46.1947 36.3996 47.0403 36.3821 48.0612C36.364 48.7288 36.3846 49.4159 36.3859 50.0834C36.3103 51.1633 36.3123 52.2038 36.3337 53.2443ZM102.622 73.1052C101.787 73.0871 100.934 73.0887 100.1 73.1099C99.0909 73.1315 99.2068 72.8957 99.1896 74.054C99.1903 74.3878 99.3262 74.466 99.6366 74.4655C100.296 74.4446 100.975 74.4629 101.635 74.4617C102.294 74.4604 102.973 74.4592 103.633 74.4579C104.04 74.4572 104.098 74.3589 103.942 73.9665C103.708 73.3584 103.242 73.104 102.622 73.1052ZM100.522 70.6158C100.192 70.6164 99.8621 70.5974 99.5323 70.6177C99.4353 70.6179 99.2415 70.6968 99.2416 70.7557C99.2228 71.0894 99.2041 71.4232 99.2435 71.7569C99.2436 71.8158 99.4184 71.9136 99.5154 71.9135C99.9422 71.9323 100.35 71.9315 100.776 71.8914C101.281 71.8316 101.61 71.4776 101.803 71.006C101.899 70.7506 101.841 70.5937 101.53 70.5943C101.181 70.6146 100.852 70.6152 100.522 70.6158ZM99.3357 69.2045C99.6655 69.2235 99.9953 69.2033 100.344 69.2026C101.12 69.2011 101.896 69.1997 102.653 69.1983C103.235 69.1775 103.661 68.9215 103.913 68.3909C104.106 67.9783 104.028 67.8607 103.562 67.8615C102.049 67.8644 100.536 67.8672 99.0422 67.8701C98.0916 67.8719 97.5687 68.3833 97.5512 69.3453C97.5332 70.111 97.554 70.8766 97.5555 71.6423C97.557 72.4669 97.5586 73.2718 97.5601 74.0963C97.5607 74.4301 97.6967 74.4887 97.9875 74.39C98.5303 74.1927 98.8786 73.7012 98.8773 73.0141C98.8752 71.9147 98.8925 70.8152 98.8711 69.7158C98.8509 69.3232 98.9864 69.1855 99.3357 69.2045ZM105.774 67.9163C105.27 68.0546 104.863 68.5462 104.865 69.1352C104.847 69.9402 104.868 70.7647 104.869 71.5892C104.871 72.4138 104.872 73.258 104.874 74.0826C104.874 74.3967 104.991 74.4554 105.262 74.3567C105.786 74.1594 106.134 73.7857 106.153 73.2163C106.188 71.5279 106.166 69.8591 106.162 68.1708C106.143 67.8763 106.007 67.8569 105.774 67.9163ZM84.4348 68.2706C84.4342 67.9172 84.2789 67.8979 84.0075 67.9769C83.5034 68.1546 83.1551 68.6264 83.1369 69.2351C83.119 70.04 83.1399 70.8645 83.1415 71.6891C83.143 72.5137 83.1446 73.3186 83.1461 74.1432C83.1467 74.4573 83.2632 74.4963 83.5346 74.4173C84.0581 74.2396 84.4258 73.7677 84.4441 73.1787C84.4604 71.5296 84.4379 69.9001 84.4348 68.2706ZM112.103 70.5154C111.172 70.5172 110.241 70.519 109.31 70.5207C108.379 70.5225 108.398 70.5224 108.435 69.5996C108.454 69.2855 108.57 69.2067 108.861 69.2062C109.288 69.225 109.695 69.2046 110.122 69.2038C110.82 69.2025 111.519 69.2208 112.217 69.1999C112.896 69.1789 113.38 68.805 113.535 68.255C113.612 67.9996 113.592 67.8426 113.262 67.8432C111.633 67.8463 110.003 67.8298 108.374 67.8721C107.675 67.893 107.21 68.3847 107.134 69.0916C107.096 69.4451 107.116 69.7984 107.117 70.1518C107.119 71.3887 107.586 71.859 108.808 71.8567C109.797 71.8548 110.806 71.8529 111.795 71.8707C111.951 71.8704 112.242 71.9287 112.242 72.0072C112.281 72.3213 112.301 72.655 112.224 72.9496C112.205 73.0282 111.856 73.0878 111.662 73.0881C110.634 73.1097 109.586 73.092 108.558 73.1136C107.879 73.1149 107.375 73.4496 107.182 73.98C107.047 74.3533 107.106 74.4514 107.513 74.4506C108.308 74.4491 109.084 74.4476 109.88 74.4461C110.636 74.4447 111.393 74.4433 112.149 74.4419C113.061 74.4205 113.565 73.8895 113.602 72.9667C113.601 72.6526 113.6 72.3188 113.6 72.0047C113.598 71.0231 113.093 70.5136 112.103 70.5154ZM95.2398 67.8772C94.8518 67.8583 94.4638 67.8787 94.0758 67.8794C93.0864 67.8813 93.1058 67.8813 93.1659 68.8628C93.1858 69.1376 93.283 69.2356 93.5546 69.235C94.0202 69.2342 94.5052 69.2333 94.9708 69.2324C95.2618 69.2318 95.3784 69.3494 95.3595 69.6439C95.3411 70.1544 95.3615 70.6648 95.3624 71.1753C95.3634 71.6661 95.3643 72.1765 95.3652 72.6673C95.3661 73.1189 95.4632 73.1776 95.8702 72.9805C96.3935 72.7243 96.6644 72.3115 96.6633 71.7225C96.6617 70.9176 96.6797 70.1322 96.6587 69.3274C96.6376 68.4047 96.1128 67.8952 95.2398 67.8772ZM91.5344 67.8842C90.7002 67.8662 89.8466 67.8481 89.0125 67.889C88.2559 67.91 87.7332 68.4607 87.7152 69.2068C87.6974 70.051 87.699 70.9148 87.72 71.759C87.7403 72.2694 87.9739 72.6813 88.44 72.916C88.8672 73.1311 89.0419 73.1897 89.0213 72.5811C89.0001 71.6192 89.0177 70.6571 89.0159 69.7148C89.0153 69.3614 89.112 69.2042 89.4806 69.2231C89.985 69.2418 90.4894 69.2408 91.0132 69.2202C91.4011 69.1998 91.5566 69.337 91.5379 69.7297C91.5199 70.4365 91.5406 71.1432 91.5419 71.85C91.5433 72.5764 91.5447 73.3028 91.546 74.0292C91.5468 74.4414 91.6439 74.5002 92.0122 74.3424C92.555 74.1058 92.8452 73.6733 92.8635 73.104C92.8804 71.7885 92.8779 70.4732 92.856 69.1578C92.8159 68.4511 92.2717 67.9221 91.5344 67.8842ZM86.5472 77.3761C85.8876 77.397 85.228 77.3982 84.549 77.3799C84.2386 77.3805 84.1807 77.518 84.1812 77.7929C84.1833 78.9315 84.1635 78.7156 85.056 78.7532C85.3276 78.7331 85.6186 78.7325 85.89 78.6731C86.3554 78.5741 86.6459 78.2594 86.8196 77.8271C86.9161 77.5521 86.8963 77.3558 86.5472 77.3761ZM134.495 73.0451C133.467 73.0274 132.42 73.049 131.391 73.0509C130.771 73.0521 130.771 73.0521 130.769 72.4042C130.767 71.3441 130.765 70.2839 130.763 69.2041C130.762 68.5563 130.412 68.0858 129.869 67.8905C129.577 67.7928 129.442 67.8324 129.442 68.1857C129.463 69.0103 129.445 69.8152 129.447 70.6398C129.448 71.4251 129.43 72.1908 129.451 72.9761C129.472 73.8595 129.978 74.3886 130.831 74.387C132.403 74.4037 133.994 74.381 135.565 74.3781C135.934 74.3774 135.992 74.2595 135.855 73.926C135.66 73.3766 135.174 73.0438 134.495 73.0451ZM143.002 67.7872C142.575 67.7487 142.226 67.9457 141.917 68.2407C141.413 68.7521 140.89 69.2636 140.406 69.7946C140.155 70.0699 139.98 70.0506 139.727 69.7958C139.241 69.2667 138.717 68.7769 138.192 68.2478C137.9 67.9538 137.531 67.7778 137.105 67.7983C137.008 67.7985 136.833 67.897 136.833 67.9558C136.795 68.3093 136.718 68.6825 137.049 68.996C137.515 69.427 137.923 69.9367 138.409 70.3284C139.186 70.9748 139.673 71.7003 139.403 72.5843C139.404 73.1929 139.405 73.6248 139.405 74.0371C139.406 74.3316 139.523 74.3706 139.775 74.2916C140.298 74.1532 140.705 73.6223 140.742 72.9744C140.761 72.5621 140.76 72.1498 140.74 71.7572C140.72 71.4431 140.836 71.2269 141.049 71.0106C141.707 70.3615 142.346 69.6731 143.024 69.024C143.353 68.7092 143.333 68.3559 143.274 68.0026C143.274 67.9241 143.099 67.8066 143.002 67.7872ZM128.219 67.815C127.443 67.8165 126.687 67.8179 125.911 67.8194C125.523 67.8201 125.135 67.8209 124.747 67.8216C124.339 67.8224 123.932 67.8035 123.544 67.8239C122.71 67.8647 122.187 68.3565 122.169 69.1811C122.134 70.791 122.175 72.4008 122.159 74.0107C122.16 74.3445 122.276 74.4228 122.586 74.3044C123.129 74.107 123.477 73.6156 123.496 72.948C123.513 71.8878 123.492 70.8277 123.49 69.7676C123.488 69.1786 123.488 69.1786 124.109 69.1578C125.137 69.1559 126.185 69.1539 127.213 69.1519C127.834 69.1508 128.299 68.8947 128.55 68.3052C128.705 67.9123 128.646 67.8142 128.219 67.815ZM143.996 49.8608C143.976 49.0559 143.45 48.3698 142.752 48.1159C142.286 47.9597 142.208 47.9991 142.19 48.5096C142.173 50.0409 142.176 51.5526 142.179 53.084C142.18 53.6337 142.161 53.6534 141.637 53.674C140.085 53.6769 138.552 53.6798 137 53.6827C136.457 53.6837 136.438 53.6641 136.437 53.1144C136.435 52.015 136.433 50.9156 136.43 49.8162C136.428 48.7168 136.426 47.6174 136.424 46.5179C136.423 46.0075 136.346 45.9487 135.861 46.1264C135.066 46.4027 134.582 47.13 134.565 48.1313C134.548 49.3093 134.569 50.4676 134.571 51.6455C134.573 52.3915 134.574 53.1376 134.634 53.8835C134.713 54.8453 135.491 55.5506 136.441 55.5685C138.342 55.5845 140.263 55.5809 142.184 55.5577C143.192 55.5361 143.986 54.7493 144.004 53.7284C144.021 52.413 144.018 51.1369 143.996 49.8608ZM124.422 70.5707C123.801 70.5719 123.801 70.5719 123.803 71.2198C123.804 71.8873 123.804 71.8873 124.444 71.8861C124.716 71.8856 125.007 71.885 125.278 71.8649C125.783 71.805 126.247 71.4115 126.382 70.9401C126.44 70.7044 126.42 70.567 126.129 70.5675C125.8 70.5681 125.47 70.5688 125.14 70.5694C124.907 70.5698 124.674 70.5703 124.422 70.5707ZM120.983 67.8287C120.654 67.8489 120.324 67.8299 119.994 67.8306L119.567 67.8314C118.578 67.8332 118.52 67.8726 118.657 68.854C118.677 68.9717 118.832 69.1481 118.929 69.1479C119.395 69.1667 119.88 69.1658 120.346 69.106C120.83 69.0462 121.101 68.6923 121.275 68.26C121.372 67.985 121.332 67.8084 120.983 67.8287ZM117.026 67.8361C116.424 67.8176 115.842 67.8187 115.241 67.8395C114.717 67.8601 114.31 68.1554 114.098 68.6466C113.924 69.0396 114.002 69.1572 114.409 69.1761C115.108 69.1748 115.806 69.1931 116.504 69.1721C116.873 69.1518 116.99 69.3086 116.99 69.662C116.972 70.3492 116.993 71.0363 116.994 71.7431C116.996 72.4891 116.997 73.2351 116.999 73.9812C116.999 74.4131 117.116 74.4718 117.504 74.2943C117.969 74.0775 118.278 73.7039 118.297 73.1934C118.333 71.8191 118.331 70.4644 118.289 69.0902C118.268 68.3639 117.724 67.8741 117.026 67.8361ZM127.24 73.0588C126.386 73.0407 125.513 73.062 124.66 73.0636C123.748 73.0653 123.767 73.0653 123.789 74.0076C123.789 74.3414 123.906 74.4393 124.216 74.4387C124.876 74.4179 125.555 74.4362 126.214 74.435C126.893 74.4337 127.592 74.4324 128.271 74.4311C128.601 74.4305 128.678 74.2929 128.58 73.9986C128.405 73.4296 127.919 73.0575 127.24 73.0588ZM79.0447 80.1781C79.0432 79.3928 79.0418 78.6075 79.0403 77.8418C79.0401 77.7044 78.9815 77.4885 78.8843 77.4298C78.4183 77.1755 77.2742 77.4525 76.9453 77.9243C76.8099 78.1209 76.7716 78.3958 76.6945 78.6512C76.8885 78.6901 77.0826 78.7486 77.2766 78.7482C77.5289 78.7674 77.7229 78.767 77.7235 79.1204C77.7061 80.1806 77.7275 81.2407 77.7296 82.3205C77.7301 82.5757 77.6138 82.6545 77.381 82.6549C76.3334 82.6569 75.2858 82.6589 74.2189 82.6609C73.9473 82.6614 73.85 82.5438 73.8495 82.2689C73.8476 81.248 73.865 80.2075 73.8437 79.1866C73.8431 78.8529 73.9787 78.7545 74.2891 78.7539C74.6965 78.7531 75.1039 78.7523 75.4918 78.7123C76.0543 78.6524 76.4028 78.2787 76.5764 77.7483C76.6535 77.4929 76.5951 77.3949 76.3235 77.3954C75.5669 77.4165 74.8103 77.3982 74.0537 77.3997C73.0643 77.4015 72.5609 77.9326 72.5628 78.9142C72.565 80.0921 72.5672 81.2504 72.5694 82.4284C72.5714 83.4885 73.0767 83.9784 74.1244 83.9961C75.269 83.9939 76.3941 83.9918 77.5387 83.9896C78.5087 83.9878 79.0121 83.4568 79.0296 82.4555C79.0476 81.6898 79.0267 80.9241 79.0447 80.1781ZM36.5415 70.8543C36.4831 70.7758 36.3084 70.7173 36.192 70.7175C35.7459 70.7576 35.2618 71.2297 35.1656 71.6618C35.1272 71.8778 35.1663 72.0152 35.4185 72.0147C35.6513 72.0143 35.8841 72.0138 36.0975 72.0134C36.3497 72.0129 36.5825 72.0125 36.8347 72.012C37.0287 72.0117 37.1643 71.9525 37.0475 71.7368C36.8723 71.423 36.7166 71.1288 36.5415 70.8543ZM37.1774 68.615C36.9244 68.1835 36.536 67.9683 35.9928 67.9693C35.5854 67.9505 35.2172 68.1475 34.9657 68.521C34.7722 68.7962 34.6176 69.091 34.4629 69.3858C33.6316 70.899 32.8197 72.4319 32.0078 73.9647C31.7951 74.3578 31.8341 74.4559 32.2804 74.5139C32.8238 74.5914 33.2112 74.3159 33.482 73.9031C33.7723 73.5099 34.0042 73.0579 34.2362 72.6255C34.7775 71.6233 35.2995 70.6406 35.8408 69.6384C35.9955 69.3632 36.1118 69.3434 36.2676 69.6376C36.6375 70.3436 37.0268 71.0497 37.4355 71.7164C37.669 72.1086 37.9413 72.4811 38.233 72.834C38.4858 73.1476 38.8545 73.1862 39.2423 73.1069C39.5138 73.0475 39.5911 72.9099 39.4354 72.655C38.6763 71.3018 37.9366 69.9485 37.1774 68.615ZM29.4551 68.0013C28.2912 68.0035 27.1466 68.0056 25.9826 68.0078C24.9544 68.0098 24.451 68.5408 24.453 69.6009C24.4544 70.3273 24.4557 71.0537 24.4571 71.7801C24.4586 72.5851 24.4601 73.3704 24.4616 74.1753C24.4624 74.5679 24.5789 74.6463 24.9472 74.4885C25.5481 74.2125 25.7994 73.7212 25.7981 73.0734C25.7962 72.0328 25.7942 70.9727 25.7922 69.9322C25.7911 69.3628 25.7911 69.3628 26.3731 69.3617C27.1491 69.3603 27.9057 69.3392 28.6817 69.3574C29.7875 69.3553 29.6126 69.1986 29.6536 70.3568C29.6542 70.6906 29.5186 70.789 29.2082 70.7699C28.6261 70.7514 28.0441 70.7525 27.4816 70.7732C26.822 70.7941 26.3184 71.1877 26.1836 71.7376C26.1259 71.9733 26.1649 72.1107 26.4365 72.1102C27.5229 72.1081 28.6093 72.1257 29.6956 72.0844C30.4522 72.0437 30.9361 71.4931 30.9735 70.7273C30.9921 70.315 30.9913 69.9027 30.9712 69.5101C30.9499 68.5285 30.4445 67.9994 29.4551 68.0013ZM53.0309 70.6268C52.8951 70.6075 52.7593 70.6274 52.6041 70.6277C51.5953 70.6296 50.6059 70.6314 49.5972 70.6333C49.4226 70.6337 49.2093 70.6929 49.1505 70.3986C48.9743 69.5351 49.1291 69.3188 49.9827 69.3172C50.1185 69.317 50.2543 69.3167 50.4095 69.3164C51.2243 69.3149 52.0196 69.3134 52.8344 69.3118C53.4746 69.3106 53.9591 69.0545 54.2102 68.4454C54.3647 68.0721 54.3063 67.9741 53.8989 67.9748C53.1035 67.9763 52.3275 67.9778 51.5321 67.9793C50.7561 67.9807 49.9801 67.9626 49.2236 67.9836C48.37 68.0049 47.8666 68.5359 47.81 69.3802C47.7912 69.6747 47.8112 69.9888 47.8117 70.2833C47.814 71.4809 48.2999 71.9708 49.4639 71.9882C50.4727 71.9863 51.4621 71.9844 52.4709 71.9825C52.9947 71.9816 52.9947 72.0012 52.9957 72.5116C52.9959 72.6294 52.9962 72.7669 52.9964 72.8846C52.9968 73.1006 52.8806 73.199 52.6672 73.1994C52.5314 73.1996 52.3956 73.1999 52.2404 73.2002C51.2316 73.2021 50.2422 73.1843 49.2334 73.2059C48.5351 73.2268 48.012 73.6204 47.8772 74.1704C47.8002 74.4454 47.878 74.5631 48.169 74.5625C48.6345 74.542 49.1196 74.5607 49.5852 74.5598C50.6327 74.5579 51.6803 74.5559 52.7473 74.5539C53.7949 74.5519 54.2983 74.0209 54.3157 72.9803C54.3151 72.6466 54.3145 72.3128 54.3138 71.9594C54.293 71.1938 53.7876 70.6647 53.0309 70.6268ZM82.5508 77.3836C81.9688 77.3651 81.3868 77.3662 80.8243 77.3869C80.2811 77.4076 79.8549 77.7029 79.6424 78.2137C79.4686 78.6263 79.5463 78.7047 79.9732 78.7235C80.6328 78.7223 81.3118 78.721 81.9714 78.7198C82.5534 78.7187 82.5534 78.7187 82.5544 79.288C82.5557 79.9555 82.557 80.6426 82.5582 81.3101C82.5597 82.0758 82.5611 82.8415 82.5625 83.5875C82.5631 83.882 82.6796 83.9603 82.9511 83.8616C83.4551 83.7036 83.8423 83.2317 83.8605 82.6231C83.8774 81.3076 83.8749 79.9923 83.8531 78.6966C83.8323 77.9506 83.3075 77.4215 82.5508 77.3836ZM13.32 70.9373C13.2422 70.8393 13.0674 70.7415 12.9511 70.7613C12.5437 70.7817 12.0402 71.2539 11.944 71.6467C11.8862 71.902 11.9253 72.059 12.2357 72.0584C12.4685 72.058 12.6819 72.0576 12.9147 72.0571C13.1669 72.0567 13.3997 72.0562 13.6519 72.0557C13.8847 72.0553 13.9233 71.9571 13.8066 71.761C13.6314 71.4864 13.4951 71.1922 13.32 70.9373ZM13.9559 68.6784C13.6056 68.0508 12.9262 67.8361 12.3252 68.0729C11.8987 68.2307 11.6666 68.5845 11.4733 68.9776C10.99 69.8816 10.5067 70.7856 10.0235 71.6896C9.6175 72.456 9.19211 73.2028 8.78616 73.9693C8.57354 74.382 8.61249 74.4604 9.03943 74.5381C9.52457 74.6158 9.91216 74.3991 10.1831 74.0255C10.4733 73.6323 10.7247 73.1999 10.9567 72.7676C11.5174 71.7653 12.0393 70.7434 12.5805 69.7215C12.7931 69.3088 12.832 69.3284 13.0656 69.7402C13.4548 70.4266 13.8053 71.1131 14.214 71.7798C14.4475 72.1524 14.7004 72.5249 14.992 72.8385C15.1669 73.0345 15.4581 73.1125 15.6911 73.2299C16.2148 73.1503 16.3891 73.0126 16.2139 72.6988C15.4548 71.3652 14.7151 70.012 13.9559 68.6784ZM22.219 68.0149C21.0356 67.9975 19.8328 67.9998 18.6495 68.0217C17.7183 68.0234 17.1955 68.5545 17.1779 69.5165C17.1599 70.2822 17.1808 71.0478 17.1822 71.8135C17.1837 72.5988 17.1852 73.3841 17.1866 74.1498C17.1875 74.6209 17.304 74.6796 17.7111 74.4825C18.2731 74.2066 18.505 73.7154 18.5038 73.0871C18.5018 72.027 18.4998 70.9668 18.4978 69.887C18.4968 69.3766 18.4968 69.357 19.04 69.3559C19.8354 69.3544 20.6114 69.353 21.4068 69.3515C22.4932 69.3691 22.3376 69.173 22.3786 70.3509C22.3793 70.6846 22.263 70.783 21.9527 70.7836C21.3706 70.7651 20.7886 70.7662 20.2261 70.7869C19.6053 70.8077 19.0822 71.1817 18.928 71.6924C18.8509 71.9674 18.9094 72.1244 19.2392 72.1237C20.2674 72.1218 21.315 72.1395 22.3431 72.0982C23.1967 72.077 23.7 71.5264 23.7178 70.6625C23.7364 70.2502 23.7357 69.8379 23.7155 69.4453C23.6556 68.5423 23.1308 68.0132 22.219 68.0149ZM46.0641 69.4424C45.6758 69.2861 45.5983 69.3255 45.5991 69.7574C45.601 70.7586 45.6029 71.7403 45.6048 72.7415C45.6054 73.0556 45.5475 73.2324 45.1789 73.2135C44.1894 73.1957 43.1806 73.1976 42.1913 73.2191C41.8227 73.2198 41.7448 73.0826 41.7442 72.7488C41.7622 72.0224 41.7415 71.296 41.7401 70.5696C41.7387 69.8236 41.7373 69.0775 41.7359 68.3315C41.7353 68.037 41.6188 67.9587 41.3474 68.0574C40.8239 68.2351 40.4368 68.707 40.438 69.3548C40.421 70.631 40.4234 71.9071 40.4452 73.1832C40.4662 74.0077 40.991 74.5564 41.8058 74.5549C43.0668 74.5721 44.3278 74.5698 45.5888 74.5477C46.3453 74.5267 46.8875 73.9956 46.9055 73.2299C46.9426 72.366 46.9216 71.4826 46.9006 70.6188C46.8801 70.0691 46.5883 69.6574 46.0641 69.4424ZM4.96103 72.1899C5.34899 72.1696 5.71759 72.1689 6.10551 72.1289C6.80375 72.049 7.24902 71.5574 7.28649 70.8505C7.30496 70.3597 7.304 69.8492 7.28368 69.3585C7.24343 68.5929 6.73804 68.0638 5.96201 68.0456C4.68159 68.0284 3.4012 68.0308 2.12085 68.0528C1.3643 68.0739 0.84143 68.5657 0.823437 69.3118C0.786896 70.5094 0.808592 71.7266 0.81085 72.9242C0.811442 73.2383 0.947315 73.2773 1.21876 73.1982C1.74222 73.0206 2.10989 72.5291 2.12811 71.9008C2.14625 71.2332 2.14496 70.5461 2.1243 69.8786C2.10419 69.5057 2.23973 69.368 2.60837 69.3869C3.42319 69.405 4.25735 69.3838 5.07214 69.3823C6.10036 69.4 5.98363 69.2235 6.00521 70.3818C6.00581 70.6959 5.90907 70.8335 5.57923 70.8145C4.9972 70.796 4.41521 70.7971 3.85265 70.8177C3.25126 70.8189 2.80558 71.0946 2.57386 71.6644C2.43862 71.9591 2.47786 72.1946 2.76923 72.3904C3.60446 72.9385 4.45908 73.4866 5.23626 74.1134C6.12998 74.8185 7.09953 74.5811 8.05019 74.6185L8.08877 74.5007C7.03981 73.7762 5.99085 73.0518 4.94186 72.3078C4.94178 72.2685 4.94171 72.2292 4.96103 72.1899ZM70.1376 68.5332C69.8846 68.1017 69.4962 67.8865 68.9918 67.8875C68.3516 67.869 68.0031 68.2623 67.7131 68.7733C67.2298 69.6773 66.7465 70.5814 66.2632 71.4854C65.8186 72.3108 65.374 73.1362 64.9293 73.9616C64.7746 74.2367 64.8719 74.3543 65.1436 74.4127C65.5511 74.5101 65.939 74.4112 66.1906 74.0966C66.5196 73.7033 66.8098 73.2709 67.0612 72.8385C67.6606 71.7772 68.2017 70.6768 68.8011 69.6155C68.9944 69.2421 69.0526 69.242 69.2667 69.6146C69.6754 70.3206 70.0454 71.0463 70.4541 71.7523C70.6682 72.1053 70.9016 72.419 71.1737 72.7326C71.4265 73.0462 71.7953 73.1241 72.1831 73.0448C72.474 72.9853 72.5902 72.887 72.415 72.5732C71.6365 71.22 70.8968 69.8864 70.1376 68.5332ZM82.1338 72.28C82.1725 72.221 82.1918 72.1425 82.1916 72.0836C82.1906 71.5338 82.2284 70.9841 82.1885 70.4344C82.1488 69.9241 81.8377 69.5516 81.3523 69.3562C81.0028 69.2194 80.906 69.2785 80.8873 69.6516C80.8684 69.9461 80.8496 70.2603 80.889 70.5547C81.0265 71.4968 80.7175 72.2238 79.9814 72.8141C79.4585 73.247 78.4691 73.2489 77.9445 72.818C77.2255 72.2107 76.8556 71.5243 77.0284 70.562C77.0668 70.3459 77.0276 70.13 77.0272 69.9337C77.0262 69.384 77.0251 68.8343 77.0241 68.2846C77.0235 67.9508 76.8876 67.8922 76.5968 67.9909C76.0733 68.1882 75.7637 68.5618 75.7259 69.092C75.6889 70.0737 75.6713 71.0357 75.7314 72.0172C75.7716 72.7632 77.4236 74.3699 78.161 74.4667C78.4714 74.5054 78.7818 74.4851 79.1116 74.4845C79.5772 74.4836 80.0623 74.522 80.4108 74.1876C81.0305 73.5974 81.7279 73.0857 82.1338 72.28ZM63.927 77.4188C63.6166 77.4194 63.3062 77.4199 62.9765 77.4206C62.6273 77.4212 62.2781 77.4415 61.9289 77.4225C61.6766 77.4034 61.5605 77.541 61.6191 77.7765C61.6974 78.1101 61.4071 78.5229 61.8344 78.7774L61.8926 78.7772C62.3388 78.7568 62.8044 78.7952 63.2505 78.7354C63.7354 78.6756 64.0646 78.3412 64.2383 77.8894C64.354 77.4965 64.2957 77.4377 63.927 77.4188ZM60.0083 77.4458C59.4069 77.4077 58.8249 77.4284 58.2235 77.4492C57.661 77.4698 57.2735 77.7651 57.0417 78.2956C56.8873 78.6689 56.9651 78.7865 57.3531 78.7858C58.0321 78.8042 58.7305 78.7832 59.4094 78.7819C59.9526 78.7809 59.9526 78.7809 59.9537 79.3502C59.955 80.0374 59.9563 80.7441 59.9576 81.4313C59.959 82.1773 59.9605 82.9233 59.9619 83.6694C59.9624 83.9639 60.079 84.0422 60.3504 83.9435C60.8351 83.7855 61.261 83.3135 61.2599 82.7638C61.2767 81.3895 61.2936 80.0349 61.2522 78.6607C61.2315 77.9736 60.6874 77.4838 60.0083 77.4458ZM71.2796 77.4049C70.8528 77.4057 70.5039 77.6027 70.2135 77.8977C69.6907 78.4288 69.1679 78.9402 68.6645 79.4909C68.4709 79.7072 68.3157 79.7075 68.1019 79.4919C67.616 78.9824 67.1106 78.4729 66.6053 77.9831C66.411 77.8067 66.1972 77.6304 65.9642 77.5327C65.7313 77.4546 65.3625 77.3572 65.2269 77.4752C65.0914 77.5933 65.1115 77.9662 65.1313 78.2214C65.151 78.3588 65.2677 78.496 65.3649 78.6136C65.7925 79.0644 66.2008 79.5348 66.6671 79.9266C67.4638 80.5926 67.989 81.3376 67.6997 82.2412C67.7008 82.8302 67.7015 83.2032 67.7023 83.5959C67.7224 83.9885 67.7807 84.0277 68.149 83.8895C68.653 83.6726 68.9627 83.2794 69.0004 82.71C69.019 82.278 69.0181 81.8265 68.9979 81.375C68.9779 81.0805 69.0745 80.8644 69.2875 80.6677C69.9459 80.0185 70.546 79.3499 71.2238 78.7204C71.553 78.4056 71.6107 78.0914 71.5905 77.6792C71.6095 77.4632 71.493 77.4045 71.2796 77.4049ZM69.0771 71.9512C69.1159 71.9512 69.1547 71.9511 69.1741 71.951C70.1635 71.9492 70.1635 71.9492 69.6769 71.1059C69.3655 70.5568 69.0937 70.4984 68.6095 70.892C68.4352 71.0297 68.2803 71.2263 68.1837 71.4228C67.971 71.8159 68.0683 71.9531 68.5339 71.9523C68.7279 71.9519 68.9025 71.9516 69.0771 71.9512Z" fill="url(#paint0_linear_107_1028)"/>
<defs>
<linearGradient id="paint0_linear_107_1028" x1="72.0748" y1="83.9996" x2="71.9164" y2="0.00242663" gradientUnits="userSpaceOnUse">
<stop stop-color="#B69665"/>
<stop offset="1" stop-color="#B69665"/>
</linearGradient>
</defs>
</svg>
